<svg xmlns="http://www.w3.org/2000/svg" viewBox="0 0 1080 1080" fill="#fff" xmlns:v="https://vecta.io/nano"><path d="M298.86 469.57C299 334.92 408.33 225.91 543 226.08S786.64 335.55 786.46 470.2s-109.27 243.48-243.8 243.48c-134.72-.07-243.87-109.35-243.8-244.07zm238.86 83.48a239 239 0 0 1-56.34-5.05 43.08 43.08 0 0 1-30.78-24.75q-8.27-19.07-8-58.82a374.92 374.92 0 0 1 2.6-41.43q2.38-20.09 4.76-33.11l1.67-8.63a4.82 4.82 0 0 0 0-.76 5 5 0 0 0-4.09-4.9l-31.45-4.9h-.68a5 5 0 0 0-4.81 3.82c-.54 2-.85 3.51-1.79 8.31-1.8 9.26-3.46 18.29-5.31 31.46a409.48 409.48 0 0 0-3.54 43.13 220.41 220.41 0 0 0 0 30.19q1.11 40 13.74 63.94 12.63 23.94 42.78 34.42 30.15 10.51 84 10.29H545q53.91.22 84-10.29 30.09-10.51 42.78-34.42 12.63-23.94 13.75-63.94a223.65 223.65 0 0 0 0-30.19 409.5 409.5 0 0 0-3.55-43.13c-1.84-13-3.51-22-5.3-31.46-1-4.8-1.26-6.29-1.8-8.31a4.94 4.94 0 0 0-4.81-3.82h-.81l-31.45 4.9a4.94 4.94 0 0 0-4.13 4.9 4.82 4.82 0 0 0 0 .76l1.66 8.63q2.38 13.06 4.81 33.11a379.81 379.81 0 0 1 2.56 41.43q.4 39.68-8 58.77a43.07 43.07 0 0 1-30.62 24.8 238.71 238.71 0 0 1-56.3 5.08zm206.46 264.86c0-21.08 6-35.87 30.41-35.87S805 796.83 805 817.91s-6 35.86-30.38 35.86-30.44-14.77-30.44-35.86zm45.31 0c0-14.66-1.9-23-14.9-23s-14.94 8.36-14.94 23 1.93 23 14.94 23 14.9-8.39 14.9-23zM323 851.08a2 2 0 0 0 1.76 1h5.69a2 2 0 0 0 2-2v-64.37a2 2 0 0 0-2-2h-11.33a2 2 0 0 0-2 2v51.09a31 31 0 0 1-15.86 4c-7.25 0-10.8-3.15-10.8-10.13v-44.96a2 2 0 0 0-2-2h-11.41a2 2 0 0 0-2 2V832c0 13.14 6.16 21.75 23.54 21.75a39.39 39.39 0 0 0 22.18-7.11l2 4.53zm127.74-47.29c0-13-6.43-21.77-22.66-21.77a39.1 39.1 0 0 0-21.91 6.79c-2.87-4.23-8.36-6.79-17.53-6.79a35.55 35.55 0 0 0-20.64 7.11l-2-4.53h0a2 2 0 0 0-1.77-1h-5.73a2 2 0 0 0-2 2V850a2 2 0 0 0 2 2h11.33a2 2 0 0 0 2-2v-51a27.62 27.62 0 0 1 14.36-4c6.17 0 9.72 2.27 9.72 8.77v46.33a2 2 0 0 0 2 2h11.33a2 2 0 0 0 2-2V799a26.69 26.69 0 0 1 14.39-4c6 0 9.72 2.27 9.72 8.77v46.29a2 2 0 0 0 2 2h11.33a2 2 0 0 0 2-2zm35.03 42.87a36.19 36.19 0 0 0 22.23 7.11c20 0 27.37-13.41 27.37-35.86S527.93 782 508 782a34.67 34.67 0 0 0-18.35 5.35v-20.67a2 2 0 0 0-2-2.06h-11.42a2 2 0 0 0-2 2v83.48a2 2 0 0 0 2 2h5.69a2 2 0 0 0 1.76-1h0zm18.6-5.89a29.23 29.23 0 0 1-14.77-4V799a29.23 29.23 0 0 1 14.77-4c13.41 0 15.48 10.27 15.48 22.87s-2 22.86-15.46 22.86zM592 795.5a37.82 37.82 0 0 0-5.32-.34 33.52 33.52 0 0 0-17.54 4.1v50.82a2 2 0 0 1-2 2H555.8a2 2 0 0 1-2-2v-64.37a2 2 0 0 1 2-2h5.69a2 2 0 0 1 1.77 1h0l2 4.53a34.76 34.76 0 0 1 21.64-7.11 32.17 32.17 0 0 1 5.37.45h0c1 0 1.86 1.7 1.86 2.79v8.2a2 2 0 0 1-2 2h-.16m39.31 24.94c-6.8.82-10.83 3.4-10.83 10.54 0 5.21 2.26 10.13 10.53 10.13a25.2 25.2 0 0 0 14.66-4.54v-17.71zm18.12 26.15a33.22 33.22 0 0 1-20.66 7.11c-17.67 0-23.54-10.94-23.54-21.91 0-14.79 9.58-21.09 25.06-22.31l15.34-1.23v-3.42c0-7-3.29-9.72-13.42-9.72a57.41 57.41 0 0 0-18.69 3.13 2.22 2.22 0 0 1-.63 0 2 2 0 0 1-2-2v-9.06a2 2 0 0 1 1.31-1.93h0a65.46 65.46 0 0 1 21.14-3.42c22.45 0 27.64 9.85 27.64 24.38v43.68a2 2 0 0 1-2 2h-5.68a2 2 0 0 1-1.77-1h0zm78.01-8.66a2.08 2.08 0 0 1 .61 0 2 2 0 0 1 2 2v9.08a2 2 0 0 1-1.24 1.88h0a49.24 49.24 0 0 1-17.63 2.88c-24.24 0-31.72-14.52-31.72-35.87s7.41-35.86 31.72-35.86a48.74 48.74 0 0 1 17.51 2.76h0a2 2 0 0 1 1.27 1.9v9.07a2 2 0 0 1-2 2 3.53 3.53 0 0 1-.65 0h0a47 47 0 0 0-15.28-2.16c-13.28 0-17.13 9.06-17.13 22.32s3.85 22.31 17.13 22.31a46.81 46.81 0 0 0 15.27-2.26"/></svg>